<?xml version="1.0" encoding="utf-8"?>
<!-- Generator: Adobe Illustrator 24.0.0, SVG Export Plug-In . SVG Version: 6.00 Build 0)  -->
<svg version="1.1" xmlns="http://www.w3.org/2000/svg" xmlns:xlink="http://www.w3.org/1999/xlink" x="0px" y="0px"
	 viewBox="0 0 841.89 595.28" style="enable-background:new 0 0 841.89 595.28;" xml:space="preserve">
<style type="text/css">
	.st0{display:none;}
	.st1{display:inline;}
	.st2{fill:none;stroke:#F15F26;stroke-width:16.6073;stroke-linejoin:round;stroke-miterlimit:10;}
	.st3{fill:none;stroke:#F15F26;stroke-width:16.6073;stroke-linecap:round;stroke-linejoin:round;stroke-miterlimit:10;}
	.st4{fill:none;stroke:#F15F26;stroke-width:7.6077;stroke-linejoin:round;stroke-miterlimit:10;}
	.st5{fill:#F15F26;}
	.st6{display:inline;fill:none;stroke:#F15F25;stroke-width:11.4115;stroke-miterlimit:10;}
	.st7{fill:none;stroke:#F15F26;stroke-width:8.19;stroke-linecap:round;stroke-linejoin:round;stroke-miterlimit:10;}
	.st8{fill:none;stroke:#F15F26;stroke-width:9.4527;stroke-linecap:round;stroke-linejoin:round;stroke-miterlimit:10;}
	.st9{fill:none;stroke:#FFFFFF;stroke-width:26.3424;stroke-linecap:round;stroke-linejoin:round;stroke-miterlimit:10;}
	.st10{fill:#FFFFFF;stroke:#FFFFFF;stroke-width:8.19;stroke-linecap:round;stroke-linejoin:round;stroke-miterlimit:10;}
	.st11{fill:#F15F25;}
	.st12{font-family:'Montserrat-SemiBold';}
	.st13{font-size:59.4965px;}
	.st14{fill:none;stroke:#F15F25;stroke-width:11.8993;stroke-miterlimit:10;}
	.st15{fill:none;stroke:#F15F27;stroke-width:11.7408;stroke-linecap:round;stroke-linejoin:round;stroke-miterlimit:10;}
	.st16{fill:none;stroke:#F15F27;stroke-width:11.7408;stroke-miterlimit:10;}
	.st17{fill:#FFFFFF;stroke:#F15F26;stroke-width:4.3024;stroke-linecap:round;stroke-linejoin:round;stroke-miterlimit:10;}
	.st18{fill:none;stroke:#F15F26;stroke-width:4.3024;stroke-linecap:round;stroke-linejoin:round;stroke-miterlimit:10;}
	.st19{fill:#FFFFFF;stroke:#FFFFFF;stroke-width:12.9073;stroke-linecap:round;stroke-linejoin:round;stroke-miterlimit:10;}
	.st20{fill:none;stroke:#F15F25;stroke-width:12.0388;stroke-miterlimit:10;}
	.st21{fill:none;stroke:#010101;stroke-width:37.6683;}
	.st22{fill:#010101;}
	.st23{fill:#2D2F31;}
	.st24{fill:#CACCCD;}
	.st25{fill:#F26733;}
</style>
<g id="Semplice" class="st0">
	<g class="st1">
		<circle class="st2" cx="420.95" cy="297.64" r="166.07"/>
		<path class="st3" d="M289.06,281.48c6.88-56.7,49.47-102.38,104.6-113.89"/>
		<path class="st3" d="M539.53,357.62c-12.92,25.5-33.83,46.27-59.43,59.02"/>
		<polygon class="st2" points="487.37,222.91 396.03,314.25 362.82,281.03 329.6,314.25 396.03,380.68 520.59,256.12 		"/>
	</g>
</g>
<g id="Comunicare" class="st0">
	<g class="st1">
		<path class="st4" d="M470.39,221.56h-98.9c-21.01,0-38.04,17.03-38.04,38.04v45.65c0,21.01,17.03,38.04,38.04,38.04h33.06
			l16.39,30.43l16.39-30.43h33.06c21.01,0,38.04-17.03,38.04-38.04V259.6C508.43,238.59,491.4,221.56,470.39,221.56z"/>
		<circle class="st5" cx="420.95" cy="278.62" r="9.51"/>
		<circle class="st5" cx="375.3" cy="278.62" r="9.51"/>
		<circle class="st5" cx="466.59" cy="278.62" r="9.51"/>
	</g>
	<circle class="st6" cx="420.95" cy="297.64" r="167.37"/>
</g>
<g id="YAppi">
	<g>
		<g>
			<g>
				<path class="st5" d="M514.17,284.72c0,4.1-3.33,7.43-7.43,7.43c-4.1,0-7.43-3.33-7.43-7.43c0-4.1,3.33-7.43,7.43-7.43
					C510.85,277.3,514.17,280.62,514.17,284.72z"/>
				<path class="st7" d="M569.96,301.9l-25.6-7.48c-5.6-17.24-17.83-32.5-34.63-44.24c1.85-8.05,6.03-16.89,11.61-24.37
					c2.9-3.89,1.02-9.57-3.75-10.49c-21.18-4.07-40.93,2.32-52.86,14.96c-11.7-2.83-24.15-4.4-37.12-4.4
					c-66.41,0-120.24,40.15-120.24,89.67c0,27.11,16.2,51.36,41.7,67.8l17.19,45.92h24.07l13.18-25.85
					c7.79,1.18,15.85,1.81,24.1,1.81c8.26,0,16.32-0.62,24.1-1.81l13.18,25.85h24.07l17.19-45.92c13-8.39,23.54-18.81,30.77-30.61
					l33.02-8.67V301.9z"/>
				<path class="st8" d="M388.48,400.35c4.87,1.26,9.89,2.29,15.03,3.07"/>
				<path class="st7" d="M304.68,245.04c0,0-0.82-0.02-0.9,0c-0.08,0.02-0.72,0.36-0.84,0.47c-0.11,0.11-0.51,0.66-0.6,0.88
					c-0.08,0.22-0.22,0.88-0.2,1.19c0.01,0.31,0.14,0.99,0.3,1.35c0.16,0.36,0.53,0.97,0.85,1.31c0.32,0.34,0.91,0.82,1.4,1.08
					c0.49,0.26,1.24,0.54,1.86,0.65c0.62,0.11,1.48,0.15,2.18,0.06c0.7-0.09,1.59-0.33,2.31-0.65c0.71-0.33,1.55-0.84,2.2-1.42
					c0.65-0.57,1.35-1.36,1.85-2.15c0.5-0.8,0.98-1.81,1.26-2.79c0.28-0.98,0.47-2.16,0.46-3.26c0-1.1-0.16-2.35-0.48-3.48
					c-0.33-1.13-0.85-2.36-1.51-3.42c-0.66-1.06-1.55-2.16-2.53-3.06c-0.99-0.9-2.19-1.75-3.45-2.39c-1.26-0.63-2.72-1.16-4.19-1.44
					c-1.46-0.29-3.09-0.4-4.65-0.28c-1.57,0.12-3.23,0.46-4.78,1.03c-1.55,0.56-3.13,1.37-4.54,2.37c-1.41,1-2.77,2.25-3.91,3.65
					c-1.14,1.4-2.16,3.03-2.92,4.75c-0.76,1.72-1.34,3.64-1.62,5.58c-0.29,1.94-0.34,4.02-0.09,6.04c0.25,2.03,0.76,4.12,1.57,6.08
					c0.8,1.96,1.89,3.91,3.23,5.65c1.34,1.74,2.96,3.39,4.77,4.77c1.81,1.38,3.87,2.58,6.06,3.46c2.18,0.88,4.56,1.52,6.98,1.8
					c2.42,0.29,4.95,0.27,7.44-0.1c2.48-0.37,5-1.07,7.38-2.11c2.37-1.04,4.69-2.41,6.77-4.09c1-0.8,1.96-1.68,2.87-2.62"/>
				<path class="st8" d="M484.68,394.45c7.7-3.12,14.9-6.85,21.48-11.1"/>
				<path class="st7" d="M481.77,235.71c-5.41-2.17-11.1-4-17.04-5.44"/>
				<g>
					<path class="st9" d="M450.66,250.02c-6.05-0.86-12.29-1.32-18.66-1.32c-23.92,0-46.07,6.44-62.76,16.81"/>
				</g>
				<circle class="st10" cx="405.08" cy="183.78" r="61.84"/>
				<circle class="st7" cx="406.4" cy="197.01" r="43.63"/>
				<g>
					<path class="st7" d="M454.63,253.98c-6.05-0.86-12.29-1.32-18.66-1.32c-23.92,0-46.07,6.44-62.76,16.81"/>
				</g>
				<g>
					<path class="st10" d="M454.63,238.12c-6.05-0.86-12.29-1.32-18.66-1.32c-23.92,0-46.07,6.44-62.76,16.81"/>
				</g>
			</g>
		</g>
		<text transform="matrix(1 0 0 1 387.8917 220.8041)" class="st11 st12 st13">Y</text>
		<circle class="st14" cx="420.95" cy="298.81" r="174.52"/>
	</g>
</g>
<g id="Nuove_opportunità" class="st0">
	<g class="st1">
		<g>
			<g>
				<g>
					<polyline class="st15" points="432.68,320.73 406,331.78 386.24,284.06 412.91,273.01 					"/>
					<line class="st15" x1="396.12" y1="307.92" x2="422.8" y2="296.87"/>
				</g>
				<g>
					<polyline class="st15" points="345.82,356.71 326.05,308.99 383.02,341.3 363.25,293.58 					"/>
				</g>
				<g>
					<polyline class="st15" points="496.07,238.57 500.31,292.72 465.01,251.43 469.25,305.58 433.96,264.3 					"/>
				</g>
			</g>
			<path class="st15" d="M313.86,275.87c1.4-6.87,3.46-13.59,6.14-20.05c2.68-6.46,5.97-12.66,9.83-18.51
				c3.87-5.85,8.31-11.35,13.29-16.41c4.98-5.06,10.5-9.66,16.51-13.73c6.01-4.07,12.53-7.59,19.5-10.48
				c6.97-2.89,14.07-5,21.19-6.38c7.13-1.38,14.29-2.02,21.38-1.97c7.1,0.05,14.13,0.8,21,2.21c6.87,1.4,13.59,3.46,20.05,6.14
				c6.46,2.68,12.66,5.97,18.51,9.84"/>
			<path class="st15" d="M528.03,319.41c-1.4,6.87-3.46,13.59-6.14,20.05c-2.68,6.46-5.97,12.66-9.83,18.51
				c-3.87,5.85-8.31,11.35-13.29,16.41c-4.98,5.06-10.5,9.66-16.51,13.73c-6.01,4.07-12.53,7.59-19.5,10.48
				c-6.97,2.89-14.07,5-21.19,6.38c-7.13,1.38-14.29,2.02-21.39,1.97c-7.1-0.05-14.13-0.8-21-2.2c-6.87-1.4-13.59-3.46-20.05-6.14
				c-6.46-2.67-12.66-5.97-18.52-9.83"/>
			<path class="st16" d="M378.53,145.37L378.53,145.37c5.45-20.76,33.34-24.43,43.98-5.79l0,0c7.86,13.77,26.68,16.25,37.83,4.98
				l0,0c15.1-15.25,41.09-4.49,40.98,16.98l0,0c-0.08,15.85,14.98,27.41,30.28,23.23l0,0c20.7-5.66,37.83,16.66,27,35.19l0,0
				c-8,13.69-0.73,31.23,14.6,35.26h0c20.76,5.45,24.43,33.35,5.79,43.98l0,0c-13.77,7.86-16.25,26.68-4.98,37.84l0,0
				c15.25,15.1,4.49,41.09-16.98,40.98l0,0c-15.85-0.08-27.41,14.98-23.23,30.28l0,0c5.66,20.7-16.66,37.83-35.19,27h0
				c-13.69-8-31.23-0.73-35.26,14.6l0,0c-5.45,20.76-33.34,24.43-43.98,5.79l0,0c-7.86-13.77-26.68-16.25-37.83-4.98h0
				c-15.1,15.25-41.09,4.49-40.98-16.98l0,0c0.08-15.86-14.98-27.41-30.28-23.23l0,0c-20.7,5.66-37.83-16.66-27-35.19l0,0
				c8-13.69,0.73-31.23-14.6-35.26l0,0c-20.76-5.45-24.43-33.34-5.79-43.98l0,0c13.77-7.86,16.25-26.68,4.98-37.84l0,0
				c-15.25-15.1-4.49-41.09,16.98-40.98l0,0c15.85,0.08,27.41-14.98,23.23-30.28l0,0c-5.66-20.7,16.66-37.83,35.19-27l0,0
				C356.96,167.98,374.5,160.71,378.53,145.37z"/>
		</g>
	</g>
</g>
<g id="Clienti" class="st0">
	<g class="st1">
		<g>
			<g>
				<g>
					<g>
						<g>
							<g>
								<g>
									<path class="st17" d="M370.48,229.72c8.15,0,14.79-6.64,14.79-14.79c0-8.16-6.64-14.79-14.79-14.79
										c-8.16,0-14.79,6.64-14.79,14.79C355.69,223.08,362.32,229.72,370.48,229.72z"/>
								</g>
							</g>
							<g>
								<g>
									<path class="st18" d="M334.31,260.63l3.17,43.2c0.44,6.65,8.86,9.62,14.45,10.45c0.25,0.04,0.49,0.07,0.73,0.09l4.26,57.56
										c0.17,2.27,2.09,4.11,4.3,4.11h16.73c2.2,0,4.13-1.84,4.3-4.11l4.26-57.56c0.23-0.02,0.48-0.05,0.73-0.09
										c5.58-0.82,13.85-3.79,14.34-10.42l3.16-42.48c0.02-0.35,0.01-0.6,0.01-0.73c0-8.47-8.02-15.5-16.22-15.71h-39.31
										C340.97,245.14,334.31,252.18,334.31,260.63z"/>
								</g>
							</g>
						</g>
					</g>
					<g>
						<g>
							<g>
								<g>
									<path class="st17" d="M468.87,229.72c8.15,0,14.79-6.64,14.79-14.79c0-8.16-6.64-14.79-14.79-14.79
										s-14.79,6.64-14.79,14.79C454.08,223.08,460.72,229.72,468.87,229.72z"/>
								</g>
							</g>
							<g>
								<g>
									<path class="st18" d="M432.7,262.71l3.17,43.2c0.44,6.66,8.86,9.62,14.45,10.45c0.25,0.04,0.49,0.07,0.73,0.09l4.26,57.56
										c0.17,2.27,2.09,4.11,4.3,4.11h16.73c2.2,0,4.13-1.84,4.3-4.11l4.26-57.56c0.23-0.02,0.48-0.05,0.73-0.09
										c5.58-0.82,13.85-3.79,14.34-10.42l3.16-42.48c0.02-0.35,0.01-0.6,0.01-0.73c0-8.47-8.02-15.5-16.22-15.71h-39.31
										C439.37,247.23,432.7,254.26,432.7,262.71z"/>
								</g>
							</g>
						</g>
					</g>
				</g>
				<g>
					<g>
						<g>
							<g>
								<path class="st19" d="M422.24,246.35c5.44,0,9.87-4.43,9.87-9.87c0-5.45-4.43-9.88-9.87-9.88c-5.45,0-9.87,4.43-9.87,9.88
									C412.37,241.92,416.8,246.35,422.24,246.35z"/>
							</g>
						</g>
						<g>
							<g>
								<path class="st19" d="M398.09,266.99l2.12,28.84c0.29,4.44,5.91,6.42,9.64,6.97c0.17,0.02,0.33,0.05,0.49,0.06l2.84,38.43
									c0.11,1.51,1.4,2.75,2.87,2.75h11.17c1.47,0,2.76-1.23,2.87-2.75l2.84-38.43c0.16-0.01,0.32-0.03,0.49-0.06
									c3.73-0.55,9.25-2.53,9.58-6.96l2.11-28.36c0.01-0.24,0.01-0.4,0-0.49c0-5.65-5.36-10.35-10.83-10.49h-26.25
									C402.55,256.65,398.09,261.35,398.09,266.99z"/>
							</g>
						</g>
					</g>
				</g>
				<g>
					<g>
						<g>
							<g>
								<path class="st18" d="M419.67,258.24c8.15,0,14.79-6.64,14.79-14.79c0-8.16-6.64-14.79-14.79-14.79
									c-8.16,0-14.79,6.64-14.79,14.79C404.88,251.61,411.52,258.24,419.67,258.24z"/>
							</g>
						</g>
						<g>
							<g>
								<path class="st18" d="M383.5,289.15l3.17,43.2c0.44,6.66,8.86,9.62,14.45,10.45c0.25,0.04,0.49,0.07,0.73,0.09l4.26,57.56
									c0.17,2.27,2.1,4.11,4.3,4.11h16.73c2.2,0,4.13-1.84,4.3-4.11l4.26-57.56c0.23-0.02,0.48-0.05,0.73-0.09
									c5.58-0.82,13.85-3.79,14.34-10.42l3.16-42.48c0.02-0.35,0.01-0.6,0.01-0.73c0-8.47-8.02-15.5-16.22-15.71h-39.31
									C390.17,273.66,383.5,280.7,383.5,289.15z"/>
							</g>
						</g>
					</g>
				</g>
			</g>
		</g>
		<circle class="st20" cx="420.95" cy="297.64" r="176.57"/>
	</g>
</g>
<g id="Registered" class="st0">
	<g class="st1">
		<circle class="st21" cx="420.95" cy="297.64" r="166.68"/>
		<path class="st22" d="M410.77,282.57c10.36,0,17.89-2.07,22.41-6.03c4.52-3.77,6.97-10.17,6.97-19.21
			c0-8.85-2.45-15.07-6.97-19.02c-4.52-3.77-12.05-5.65-22.41-5.65h-21.09v49.91H410.77 M389.68,317.04v73.45h-50.1V196.31h76.47
			c25.61,0,44.26,4.33,56.13,13c12.05,8.48,17.89,22.04,17.89,40.68c0,12.81-3.01,23.35-9.23,31.64
			c-6.22,8.1-15.44,14.31-28.06,18.08c6.97,1.7,13,5.27,18.46,10.74s10.92,13.75,16.39,25.05l27.31,55h-53.3l-23.73-48.22
			c-4.71-9.61-9.61-16.39-14.5-19.78c-4.9-3.58-11.49-5.46-19.59-5.46H389.68"/>
	</g>
</g>
<g id="Logo" class="st0">
	<g class="st1">
		<path class="st23" d="M306.48,252.84h-21.23l-24.84,38.6l-23.77-38.6h-20.97v0.8l35.93,54.09v40.52h17.63v-40.52l37.26-54.09
			V252.84z M413.29,279.01c-7.49,0-16.3,3.21-21.38,10.55l-1.07-9.08h-15.23v93.36h16.29v-35.26c4.68,7.21,14.96,9.35,21.9,9.35
			c21.1,0,33.25-15.22,33.25-34.46C447.07,294.11,433.58,279.01,413.29,279.01z M412.08,332.17c-11.09,0-18.7-8.41-18.7-18.7
			c0-10.28,6.95-18.7,18.7-18.7c11.75,0,18.7,8.42,18.7,18.7C430.78,323.76,423.16,332.17,412.08,332.17z M492.15,279.01
			c-7.48,0-16.3,3.21-21.37,10.55l-1.07-9.08h-15.22v93.36h16.29v-35.26c4.68,7.21,14.96,9.35,21.9,9.35
			c21.1,0,33.26-15.22,33.26-34.46C525.94,294.11,512.45,279.01,492.15,279.01z M490.94,332.17c-11.08,0-18.7-8.41-18.7-18.7
			c0-10.28,6.95-18.7,18.7-18.7c11.75,0,18.7,8.42,18.7,18.7C509.64,323.76,502.03,332.17,490.94,332.17z M617.25,348.25h16.16
			v-95.28h-16.16V348.25z M361.87,335.31v-54.83h-15.63l-0.54,9.08c-3.74-6.55-12.16-10.68-20.97-10.68
			c-19.23-0.13-34.33,11.75-34.33,34.46c0,23.11,14.42,35.13,33.93,34.99c7.34-0.13,17.63-3.88,21.37-11.62
			c0.43,3.49,0.88,8.79,2.63,11.6h19.92C364.94,346.86,361.87,341.29,361.87,335.31z M326.21,333.37c-10.82,0-19.5-7.49-19.5-20.04
			c0-12.55,8.68-19.9,19.5-19.9C351.85,293.44,351.85,333.37,326.21,333.37z M603.5,335.31v-54.83h-15.63l-0.53,9.08
			c-3.74-6.55-12.16-10.68-20.97-10.68c-19.23-0.13-34.32,11.75-34.32,34.46c0,23.11,14.42,35.13,33.92,34.99
			c7.35-0.13,17.63-3.88,21.37-11.62c0.42,3.49,0.87,8.79,2.63,11.6h19.92C606.58,346.86,603.5,341.29,603.5,335.31z M567.84,333.37
			c-10.82,0-19.5-7.49-19.5-20.04c0-12.55,8.68-19.9,19.5-19.9C593.49,293.44,593.49,333.37,567.84,333.37z M713.24,335.31v-54.83
			h-15.63l-0.53,9.08c-3.74-6.55-12.15-10.68-20.98-10.68c-19.23-0.13-34.32,11.75-34.32,34.46c0,23.11,14.42,35.13,33.93,34.99
			c7.35-0.13,17.63-3.88,21.37-11.62c0.43,3.49,0.87,8.79,2.63,11.6h19.92C716.32,346.86,713.24,341.29,713.24,335.31z
			 M677.59,333.37c-10.82,0-19.5-7.49-19.5-20.04c0-12.55,8.68-19.9,19.5-19.9C703.22,293.44,703.22,333.37,677.59,333.37z"/>
		<g>
			<g>
				<path class="st24" d="M146.6,368.72c1.36,4.99,6.68,7.91,11.87,6.5l17.04-4.61l-11.74-43.4l-35.47-25.94L146.6,368.72z
					 M204.37,279.82l-18.94,41.54l11.73,43.4l18.76-5.08c5.2-1.41,8.32-6.6,6.96-11.6L204.37,279.82z M161.48,245.51
					c-2.43-1.48-5.19-1.8-7.67-1.13c-2.49,0.67-4.7,2.33-6.05,4.84l-16.09,29.76l38.06,27.26l20.5-43.28L161.48,245.51z
					 M160.5,257.2c-0.77,0.79-1.74,1.34-2.77,1.61c-1.69,0.46-3.55,0.21-4.93-0.82c-2.23-1.66-2.38-4.7-0.36-6.79
					c2.03-2.1,5.48-2.45,7.71-0.8C162.37,252.06,162.53,255.11,160.5,257.2z"/>
				<g>
					<path class="st25" d="M147.81,366.52c1.35,5,6.67,7.91,11.87,6.51l17.04-4.61l-11.73-43.4l-35.48-25.94L147.81,366.52z
						 M205.58,277.61l-18.94,41.54l11.73,43.4l18.76-5.08c5.2-1.4,8.32-6.6,6.96-11.6L205.58,277.61z M162.69,243.3
						c-2.43-1.48-5.19-1.8-7.67-1.13c-2.49,0.67-4.7,2.34-6.05,4.84l-16.09,29.77l38.06,27.26l20.5-43.28L162.69,243.3z M161.72,255
						c-0.77,0.79-1.74,1.33-2.77,1.61c-1.69,0.46-3.55,0.21-4.93-0.82c-2.23-1.66-2.38-4.71-0.36-6.79c2.03-2.1,5.48-2.45,7.71-0.8
						C163.58,249.86,163.74,252.91,161.72,255z"/>
					<path class="st25" d="M149.3,364.84l-17.36-64l-2.42-1.77l18.3,67.45c1.35,5,6.67,7.91,11.87,6.51l17.04-4.61l-0.32-1.19
						l-15.23,4.12C155.97,372.75,150.66,369.84,149.3,364.84z M155.14,247.32c-0.33,0.34-0.58,0.71-0.79,1.08
						c2.06-1.54,5.02-1.67,7.01-0.2c1.83,1.37,2.24,3.68,1.19,5.62c0.22-0.17,0.46-0.31,0.65-0.51c2.03-2.09,1.87-5.14-0.35-6.8
						C160.62,244.87,157.17,245.22,155.14,247.32z M205.85,278.61l-0.27-1l-18.94,41.54l11.73,43.4l18.76-5.08
						c2.37-0.64,4.27-2.09,5.55-3.93c-1.13,1.02-2.49,1.82-4.06,2.25l-18.76,5.08l-11.73-43.4L205.85,278.61z M150.46,245.34
						c0.2-0.38,0.46-0.68,0.7-1.02c-0.85,0.75-1.61,1.63-2.18,2.7l-16.09,29.77l38.06,27.26l0.97-2.06l-37.55-26.89L150.46,245.34z"
						/>
				</g>
			</g>
			<g>
				<path class="st23" d="M157.31,247.21c-0.61,0.07-1.78,0.45-1.94,0.58c0.36,1.59-0.78,1.4-1.77,1.45c-0.12,0-0.25-0.02-0.39-0.04
					c-8.28-1.1-22.69-6.58-27.65-15.5c-0.87-1.53-1.22-3-1.18-4.36c0.12-4.2,3.97-7.65,9.04-7.52c0.96,0.03,1.95,0.18,2.97,0.5
					c6.13,1.84,9.89,6.6,12.98,12.36c1.45,2.71,2.76,5.44,3.91,8.22c0.61-0.35,1.18-0.51,2-0.72c-0.01-0.01,0.01,0.02,0,0
					c-1.2-2.88-2.55-5.71-4.04-8.5c-3.17-5.92-7.31-11.3-14.23-13.39c-1.2-0.36-2.39-0.55-3.53-0.58
					c-6.04-0.16-11.04,4.05-11.21,9.58c-0.05,1.77,0.41,3.64,1.44,5.47c5.73,9.97,20.46,15.3,29.24,16.56
					c0.17,0.02,0.37,0.04,0.59,0.05c0.06,0.01,0.12,0.01,0.18,0.01c1.21,0.03,3.12-0.32,3.71-2.21
					C157.68,248.35,157.31,247.21,157.31,247.21z"/>
			</g>
		</g>
	</g>
</g>
</svg>
